<svg xmlns:xlink="http://www.w3.org/1999/xlink" xmlns="http://www.w3.org/2000/svg" width="108" height="17" viewBox="0 0 127 20"><defs><g id="bandcamp-logo-color-bcaqua">
        <path d="M26.62 0h2.42v5.8h.04a3.96 3.96 0 013.28-1.78c3.46 0 5.14 2.73 5.14 6.05C37.5 13.12 36 16 32.76 16c-1.49 0-3.08-.37-3.8-1.87h-.05v1.57h-2.3V0m5.43 6c-2.04 0-3.08 1.6-3.08 4.02 0 2.29 1.12 4 3.08 4 2.2 0 3.04-2.02 3.04-4 0-2.06-1.05-4.02-3.04-4.02" id="b" fill="#333333"></path>
        <path d="M56.26 4.05c-1.44 0-2.7.77-3.42 2.03l-.04-.05V4.36h-2.3v9.68l-1.61.01c-.45 0-.58-.24-.58-.85V7.35c0-2.4-2.25-3.3-4.4-3.3-2.42 0-4.82.86-4.99 3.78h2.42c.11-1.23 1.07-1.8 2.43-1.8.97 0 2.27.24 2.27 1.54 0 1.47-1.55 1.27-3.3 1.6-2.03.25-4.22.7-4.22 3.54 0 2.22 1.78 3.32 3.76 3.32 1.3 0 2.85-.42 3.8-1.38.2 1.03.9 1.38 1.87 1.38.4 0 1.17-.15 4.96-.28v-.03h.02v-6.7c0-1.67 1.04-2.99 2.65-2.99 1.42 0 2.1.77 2.15 2.55v7.14h2.42v-7.8c0-2.55-1.5-3.87-3.88-3.87zM45.9 11.9c0 1.58-1.66 2.15-2.72 2.15-.85 0-2.24-.33-2.24-1.45 0-1.32.94-1.71 1.98-1.89 1.06-.2 2.23-.17 2.98-.68v1.87z" id="an" fill="#333333"></path>
        <path d="M72.62 15.7h-2.29v-1.54h-.04c-.64 1.3-2.02 1.84-3.4 1.84-3.47 0-5.14-2.66-5.14-6.06 0-4.12 2.35-5.92 4.76-5.92 1.38 0 2.9.53 3.65 1.78h.04V0h2.43v15.7m-5.42-1.68c2.16 0 3.08-2.04 3.08-4.02 0-2.5-1.17-4-3.04-4-2.27 0-3.08 2.09-3.08 4.13 0 1.96.93 3.9 3.04 3.9" id="d" fill="#333333"></path>
        <path d="M82.25 8.16c-.19-1.38-1.17-2.13-2.5-2.13-1.26 0-3.02.68-3.02 4.13 0 1.9.8 3.9 2.9 3.9 1.41 0 2.39-.97 2.62-2.6h2.42c-.44 2.95-2.2 4.57-5.03 4.57-3.44 0-5.34-2.53-5.34-5.87 0-3.43 1.81-6.1 5.42-6.1 2.55 0 4.72 1.31 4.95 4.1h-2.41" id="c" fill="#333333"></path>
        <path d="M106.44 5.94c-.5-1.3-1.75-1.89-3.09-1.89-1.74 0-2.65.77-3.37 1.9l-.07-1.59h-2.3v9.68l-1.61.01c-.45 0-.57-.24-.57-.85V7.35c0-2.4-2.26-3.3-4.4-3.3-2.42 0-4.83.86-5 3.78h2.43c.1-1.23 1.06-1.8 2.42-1.8.98 0 2.27.24 2.27 1.54 0 1.47-1.55 1.27-3.3 1.6-2.03.25-4.22.7-4.22 3.54 0 2.22 1.78 3.32 3.76 3.32 1.3 0 2.85-.42 3.8-1.38.2 1.03.9 1.38 1.88 1.38.4 0 1.16-.15 4.92-.28l.05-6.77c0-1.9 1.15-2.95 2.4-2.95 1.47 0 1.93.84 1.93 2.4v7.3h2.43V9.05c0-1.9.7-3.03 2.33-3.03 1.9 0 2 1.25 2 3.06v6.63h2.42V7.88c0-2.77-1.36-3.83-3.67-3.83-1.6 0-2.64.73-3.44 1.9zm-16.15 8.11c-.85 0-2.24-.33-2.24-1.45 0-1.32.94-1.71 1.98-1.89 1.06-.2 2.23-.17 2.98-.68v1.87c0 1.58-1.66 2.15-2.72 2.15z" id="am" fill="#333333"></path>
        <path d="M118.04 4.36V5.9h.04c.68-1.3 2-1.85 3.4-1.85 3.46 0 5.14 2.73 5.14 6.05 0 3.05-1.48 5.93-4.74 5.93-1.4 0-2.9-.53-3.67-1.78h-.05v5.67h-2.42V4.36h2.3zm.04 5.7c0 2.28 1.13 4 3.08 4 2.21 0 3.04-2.03 3.04-4 0-2.07-1.04-4.03-3.04-4.03-2.04 0-3.08 1.6-3.08 4.02z" id="p" fill="#333333"></path>
        <path id="rhomboid" fill="#1DA0C3" d="M0 15.63L8.47 0H26.6l-8.47 15.63z"></path>
    </g></defs><use xlink:href="#bandcamp-logo-color-bcaqua"></use></svg>