<svg xmlns:xlink="http://www.w3.org/1999/xlink" xmlns="http://www.w3.org/2000/svg" width="26" height="26" class="svg-icon"><defs><path d="M21.38 19.44a.13.13 0 01-.12.07H1.13a.12.12 0 01-.11-.07.33.33 0 01-.03-.09l3.27-4.15c.37-.59.57-1.27.57-1.97V7.67C4.83 4.09 7.6 1.1 11 1h.2c1.66 0 3.23.63 4.43 1.8a6.33 6.33 0 011.94 4.58v5.85c0 .7.2 1.38.6 2.01l3.2 4.05c.03.06.02.11 0 .15m-7.45 1.32a2.73 2.73 0 01-5.46 0c0-.09.03-.17.03-.25h5.4c.01.08.03.16.03.25m8.27-2.04L19 14.67a2.66 2.66 0 01-.42-1.44V7.38A7.36 7.36 0 0010.98 0C7.03.11 3.83 3.55 3.83 7.66v5.56c0 .51-.15 1-.39 1.4L.17 18.78c-.22.36-.23.79-.02 1.15.2.36.57.58.98.58H7.5c0 .08-.03.16-.03.25a3.73 3.73 0 007.46 0c0-.09-.02-.17-.03-.25h6.36a1.14 1.14 0 00.94-1.78" id="menubar-messages-icon" fill-rule="evenodd"></path></defs><use xlink:href="#menubar-messages-icon"></use></svg>